<mxfile host="app.diagrams.net" modified="2023-09-11T11:14:29.293Z" agent="Mozilla/5.0 (Windows NT 10.0; Win64; x64) AppleWebKit/537.36 (KHTML, like Gecko) Chrome/116.0.0.0 Safari/537.36" etag="-Z_ChJwEKTsAnKHoO8Eu" version="21.7.4" type="device">
  <diagram name="1 oldal" id="SleKfEMQEokS5iGmOZ_W">
    <mxGraphModel dx="1434" dy="790" grid="1" gridSize="10" guides="1" tooltips="1" connect="1" arrows="1" fold="1" page="1" pageScale="1" pageWidth="827" pageHeight="1169" math="0" shadow="0">
      <root>
        <mxCell id="0" />
        <mxCell id="1" parent="0" />
        <mxCell id="DtDVd1WLZlHQoTQFBqVH-37" value="" style="group;fillColor=#647687;fontColor=#ffffff;strokeColor=#314354;" vertex="1" connectable="0" parent="1">
          <mxGeometry x="206.5" y="410" width="367" height="280" as="geometry" />
        </mxCell>
        <mxCell id="DtDVd1WLZlHQoTQFBqVH-2" value="EMBER" style="rounded=0;whiteSpace=wrap;html=1;" vertex="1" parent="DtDVd1WLZlHQoTQFBqVH-37">
          <mxGeometry x="120" y="120" width="120" height="60" as="geometry" />
        </mxCell>
        <mxCell id="DtDVd1WLZlHQoTQFBqVH-10" value="NEM" style="ellipse;whiteSpace=wrap;html=1;" vertex="1" parent="DtDVd1WLZlHQoTQFBqVH-37">
          <mxGeometry x="277" y="95" width="90" height="50" as="geometry" />
        </mxCell>
        <mxCell id="DtDVd1WLZlHQoTQFBqVH-11" value="KOR" style="ellipse;whiteSpace=wrap;html=1;" vertex="1" parent="DtDVd1WLZlHQoTQFBqVH-37">
          <mxGeometry x="220" width="90" height="50" as="geometry" />
        </mxCell>
        <mxCell id="DtDVd1WLZlHQoTQFBqVH-12" value="AZONOSITO" style="ellipse;whiteSpace=wrap;html=1;fontStyle=4" vertex="1" parent="DtDVd1WLZlHQoTQFBqVH-37">
          <mxGeometry x="80" width="90" height="50" as="geometry" />
        </mxCell>
        <mxCell id="DtDVd1WLZlHQoTQFBqVH-13" value="NÉV" style="ellipse;whiteSpace=wrap;html=1;" vertex="1" parent="DtDVd1WLZlHQoTQFBqVH-37">
          <mxGeometry y="65" width="90" height="50" as="geometry" />
        </mxCell>
        <mxCell id="DtDVd1WLZlHQoTQFBqVH-14" value="A.N" style="ellipse;whiteSpace=wrap;html=1;" vertex="1" parent="DtDVd1WLZlHQoTQFBqVH-37">
          <mxGeometry x="10" y="180" width="90" height="50" as="geometry" />
        </mxCell>
        <mxCell id="DtDVd1WLZlHQoTQFBqVH-15" value="TÖMEG" style="ellipse;whiteSpace=wrap;html=1;" vertex="1" parent="DtDVd1WLZlHQoTQFBqVH-37">
          <mxGeometry x="110" y="230" width="90" height="50" as="geometry" />
        </mxCell>
        <mxCell id="DtDVd1WLZlHQoTQFBqVH-16" value="MAGASSÁG" style="ellipse;whiteSpace=wrap;html=1;" vertex="1" parent="DtDVd1WLZlHQoTQFBqVH-37">
          <mxGeometry x="230" y="195" width="90" height="50" as="geometry" />
        </mxCell>
        <mxCell id="DtDVd1WLZlHQoTQFBqVH-25" value="" style="endArrow=none;html=1;rounded=0;exitX=0.642;exitY=0.033;exitDx=0;exitDy=0;exitPerimeter=0;" edge="1" parent="DtDVd1WLZlHQoTQFBqVH-37" source="DtDVd1WLZlHQoTQFBqVH-2">
          <mxGeometry width="50" height="50" relative="1" as="geometry">
            <mxPoint x="200" y="100" as="sourcePoint" />
            <mxPoint x="250" y="50" as="targetPoint" />
          </mxGeometry>
        </mxCell>
        <mxCell id="DtDVd1WLZlHQoTQFBqVH-26" value="" style="endArrow=none;html=1;rounded=0;entryX=0.5;entryY=1;entryDx=0;entryDy=0;" edge="1" parent="DtDVd1WLZlHQoTQFBqVH-37" target="DtDVd1WLZlHQoTQFBqVH-12">
          <mxGeometry width="50" height="50" relative="1" as="geometry">
            <mxPoint x="140" y="120" as="sourcePoint" />
            <mxPoint x="190" y="70" as="targetPoint" />
            <Array as="points" />
          </mxGeometry>
        </mxCell>
        <mxCell id="DtDVd1WLZlHQoTQFBqVH-27" value="" style="endArrow=none;html=1;rounded=0;entryX=0;entryY=0.75;entryDx=0;entryDy=0;exitX=1;exitY=0;exitDx=0;exitDy=0;" edge="1" parent="DtDVd1WLZlHQoTQFBqVH-37" source="DtDVd1WLZlHQoTQFBqVH-14" target="DtDVd1WLZlHQoTQFBqVH-2">
          <mxGeometry width="50" height="50" relative="1" as="geometry">
            <mxPoint x="70" y="195" as="sourcePoint" />
            <mxPoint x="120" y="145" as="targetPoint" />
          </mxGeometry>
        </mxCell>
        <mxCell id="DtDVd1WLZlHQoTQFBqVH-29" value="" style="endArrow=none;html=1;rounded=0;entryX=0.425;entryY=1.017;entryDx=0;entryDy=0;entryPerimeter=0;" edge="1" parent="DtDVd1WLZlHQoTQFBqVH-37" target="DtDVd1WLZlHQoTQFBqVH-2">
          <mxGeometry width="50" height="50" relative="1" as="geometry">
            <mxPoint x="155" y="230" as="sourcePoint" />
            <mxPoint x="205" y="180" as="targetPoint" />
          </mxGeometry>
        </mxCell>
        <mxCell id="DtDVd1WLZlHQoTQFBqVH-31" value="" style="endArrow=none;html=1;rounded=0;entryX=0;entryY=0.5;entryDx=0;entryDy=0;" edge="1" parent="DtDVd1WLZlHQoTQFBqVH-37">
          <mxGeometry width="50" height="50" relative="1" as="geometry">
            <mxPoint x="240" y="160" as="sourcePoint" />
            <mxPoint x="277" y="125" as="targetPoint" />
          </mxGeometry>
        </mxCell>
        <mxCell id="DtDVd1WLZlHQoTQFBqVH-32" value="" style="endArrow=none;html=1;rounded=0;entryX=1;entryY=1;entryDx=0;entryDy=0;" edge="1" parent="DtDVd1WLZlHQoTQFBqVH-37" target="DtDVd1WLZlHQoTQFBqVH-2">
          <mxGeometry width="50" height="50" relative="1" as="geometry">
            <mxPoint x="250" y="205" as="sourcePoint" />
            <mxPoint x="300" y="155" as="targetPoint" />
          </mxGeometry>
        </mxCell>
        <mxCell id="DtDVd1WLZlHQoTQFBqVH-36" value="" style="endArrow=none;html=1;rounded=0;exitX=-0.033;exitY=0.117;exitDx=0;exitDy=0;exitPerimeter=0;" edge="1" parent="DtDVd1WLZlHQoTQFBqVH-37" source="DtDVd1WLZlHQoTQFBqVH-2">
          <mxGeometry width="50" height="50" relative="1" as="geometry">
            <mxPoint x="40" y="150" as="sourcePoint" />
            <mxPoint x="90" y="100" as="targetPoint" />
          </mxGeometry>
        </mxCell>
        <mxCell id="DtDVd1WLZlHQoTQFBqVH-38" value="" style="group;fillColor=#0050ef;fontColor=#ffffff;strokeColor=#001DBC;" vertex="1" connectable="0" parent="1">
          <mxGeometry x="180" y="120" width="420" height="245" as="geometry" />
        </mxCell>
        <mxCell id="DtDVd1WLZlHQoTQFBqVH-1" value="EMBER" style="rounded=0;whiteSpace=wrap;html=1;" vertex="1" parent="DtDVd1WLZlHQoTQFBqVH-38">
          <mxGeometry x="150" y="100" width="120" height="60" as="geometry" />
        </mxCell>
        <mxCell id="DtDVd1WLZlHQoTQFBqVH-3" value="NÉV" style="ellipse;whiteSpace=wrap;html=1;" vertex="1" parent="DtDVd1WLZlHQoTQFBqVH-38">
          <mxGeometry x="70" width="100" height="40" as="geometry" />
        </mxCell>
        <mxCell id="DtDVd1WLZlHQoTQFBqVH-4" value="A.N" style="ellipse;whiteSpace=wrap;html=1;" vertex="1" parent="DtDVd1WLZlHQoTQFBqVH-38">
          <mxGeometry y="90" width="90" height="50" as="geometry" />
        </mxCell>
        <mxCell id="DtDVd1WLZlHQoTQFBqVH-5" value="NEM" style="ellipse;whiteSpace=wrap;html=1;" vertex="1" parent="DtDVd1WLZlHQoTQFBqVH-38">
          <mxGeometry x="330" y="120" width="90" height="40" as="geometry" />
        </mxCell>
        <mxCell id="DtDVd1WLZlHQoTQFBqVH-6" value="MAGASSÁG" style="ellipse;whiteSpace=wrap;html=1;" vertex="1" parent="DtDVd1WLZlHQoTQFBqVH-38">
          <mxGeometry x="220" y="195" width="90" height="45" as="geometry" />
        </mxCell>
        <mxCell id="DtDVd1WLZlHQoTQFBqVH-7" value="KOR" style="ellipse;whiteSpace=wrap;html=1;" vertex="1" parent="DtDVd1WLZlHQoTQFBqVH-38">
          <mxGeometry x="264" y="10" width="86" height="50" as="geometry" />
        </mxCell>
        <mxCell id="DtDVd1WLZlHQoTQFBqVH-8" value="TÖMEG" style="ellipse;whiteSpace=wrap;html=1;" vertex="1" parent="DtDVd1WLZlHQoTQFBqVH-38">
          <mxGeometry x="80" y="195" width="90" height="50" as="geometry" />
        </mxCell>
        <mxCell id="DtDVd1WLZlHQoTQFBqVH-9" value="AZONOSITO" style="rounded=1;whiteSpace=wrap;html=1;fontStyle=4" vertex="1" parent="DtDVd1WLZlHQoTQFBqVH-38">
          <mxGeometry x="110" y="60" width="70" height="20" as="geometry" />
        </mxCell>
        <mxCell id="DtDVd1WLZlHQoTQFBqVH-18" value="" style="endArrow=none;html=1;rounded=0;" edge="1" parent="DtDVd1WLZlHQoTQFBqVH-38">
          <mxGeometry width="50" height="50" relative="1" as="geometry">
            <mxPoint x="140" y="200" as="sourcePoint" />
            <mxPoint x="180" y="155" as="targetPoint" />
            <Array as="points">
              <mxPoint x="170" y="165" />
            </Array>
          </mxGeometry>
        </mxCell>
        <mxCell id="DtDVd1WLZlHQoTQFBqVH-19" value="" style="endArrow=none;html=1;rounded=0;" edge="1" parent="DtDVd1WLZlHQoTQFBqVH-38" target="DtDVd1WLZlHQoTQFBqVH-1">
          <mxGeometry width="50" height="50" relative="1" as="geometry">
            <mxPoint x="230" y="205" as="sourcePoint" />
            <mxPoint x="280" y="155" as="targetPoint" />
          </mxGeometry>
        </mxCell>
        <mxCell id="DtDVd1WLZlHQoTQFBqVH-20" value="" style="endArrow=none;html=1;rounded=0;entryX=0.25;entryY=1;entryDx=0;entryDy=0;" edge="1" parent="DtDVd1WLZlHQoTQFBqVH-38" target="DtDVd1WLZlHQoTQFBqVH-9">
          <mxGeometry width="50" height="50" relative="1" as="geometry">
            <mxPoint x="90" y="110" as="sourcePoint" />
            <mxPoint x="140" y="60" as="targetPoint" />
          </mxGeometry>
        </mxCell>
        <mxCell id="DtDVd1WLZlHQoTQFBqVH-21" value="" style="endArrow=none;html=1;rounded=0;" edge="1" parent="DtDVd1WLZlHQoTQFBqVH-38">
          <mxGeometry width="50" height="50" relative="1" as="geometry">
            <mxPoint x="240" y="100" as="sourcePoint" />
            <mxPoint x="290" y="50" as="targetPoint" />
          </mxGeometry>
        </mxCell>
        <mxCell id="DtDVd1WLZlHQoTQFBqVH-22" value="" style="endArrow=none;html=1;rounded=0;entryX=0;entryY=0.5;entryDx=0;entryDy=0;exitX=1;exitY=0.5;exitDx=0;exitDy=0;" edge="1" parent="DtDVd1WLZlHQoTQFBqVH-38" source="DtDVd1WLZlHQoTQFBqVH-1" target="DtDVd1WLZlHQoTQFBqVH-5">
          <mxGeometry width="50" height="50" relative="1" as="geometry">
            <mxPoint x="264" y="160" as="sourcePoint" />
            <mxPoint x="314" y="110" as="targetPoint" />
          </mxGeometry>
        </mxCell>
        <mxCell id="DtDVd1WLZlHQoTQFBqVH-23" value="" style="endArrow=none;html=1;rounded=0;exitX=0.425;exitY=0.017;exitDx=0;exitDy=0;exitPerimeter=0;" edge="1" parent="DtDVd1WLZlHQoTQFBqVH-38" source="DtDVd1WLZlHQoTQFBqVH-1">
          <mxGeometry width="50" height="50" relative="1" as="geometry">
            <mxPoint x="130" y="120" as="sourcePoint" />
            <mxPoint x="180" y="70" as="targetPoint" />
          </mxGeometry>
        </mxCell>
        <mxCell id="DtDVd1WLZlHQoTQFBqVH-24" value="" style="endArrow=none;html=1;rounded=0;exitX=0.657;exitY=-0.1;exitDx=0;exitDy=0;exitPerimeter=0;" edge="1" parent="DtDVd1WLZlHQoTQFBqVH-38" source="DtDVd1WLZlHQoTQFBqVH-9">
          <mxGeometry width="50" height="50" relative="1" as="geometry">
            <mxPoint x="110" y="70" as="sourcePoint" />
            <mxPoint x="160" y="30" as="targetPoint" />
          </mxGeometry>
        </mxCell>
      </root>
    </mxGraphModel>
  </diagram>
</mxfile>
